HIERARCHY
ROOT Hips
{
	OFFSET -0.001795 -0.223333 0.028219
	CHANNELS 6 Xposition Yposition Zposition Zrotation Yrotation Xrotation 
	JOINT LeftUpLeg
	{
		OFFSET 0.069520 -0.091406 -0.006815
		CHANNELS 3 Zrotation Yrotation Xrotation
		JOINT LeftLeg
		{
			OFFSET 0.034277 -0.375199 -0.004496
			CHANNELS 3 Zrotation Yrotation Xrotation
			JOINT LeftFoot
			{
				OFFSET -0.013596 -0.397961 -0.043693
				CHANNELS 3 Zrotation Yrotation Xrotation
				JOINT LeftToe
				{
					OFFSET 0.026358 -0.055791 0.119288
					CHANNELS 3 Zrotation Yrotation Xrotation
					End Site
					{
						OFFSET 0.000000 0.000000 0.000000
					}
				}
			}
		}
	}
	JOINT RightUpLeg
	{
		OFFSET -0.067670 -0.090522 -0.004320
		CHANNELS 3 Zrotation Yrotation Xrotation
		JOINT RightLeg
		{
			OFFSET -0.038290 -0.382569 -0.008850
			CHANNELS 3 Zrotation Yrotation Xrotation
			JOINT RightFoot
			{
				OFFSET 0.015774 -0.398415 -0.042312
				CHANNELS 3 Zrotation Yrotation Xrotation
				JOINT RightToe
				{
					OFFSET -0.025372 -0.048144 0.123348
					CHANNELS 3 Zrotation Yrotation Xrotation
					End Site
					{
						OFFSET 0.000000 0.000000 0.000000
					}
				}
			}
		}
	}
	JOINT Spine
	{
		OFFSET -0.002533 0.108963 -0.026696
		CHANNELS 3 Zrotation Yrotation Xrotation
		JOINT Spine1
		{
			OFFSET 0.005487 0.135180 0.001092
			CHANNELS 3 Zrotation Yrotation Xrotation
			JOINT Spine2
			{
				OFFSET 0.001457 0.052922 0.025425
				CHANNELS 3 Zrotation Yrotation Xrotation
				JOINT Neck
				{
					OFFSET -0.002778 0.213870 -0.042857
					CHANNELS 3 Zrotation Yrotation Xrotation
					JOINT Head
					{
						OFFSET 0.005152 0.064970 0.051349
						CHANNELS 3 Zrotation Yrotation Xrotation
						End Site
						{
							OFFSET 0.000000 0.000000 0.000000
						}
					}
				}
				JOINT LeftShoulder
				{
					OFFSET 0.078845 0.121749 -0.034090
					CHANNELS 3 Zrotation Yrotation Xrotation
					JOINT LeftArm
					{
						OFFSET 0.090977 0.030469 -0.008868
						CHANNELS 3 Zrotation Yrotation Xrotation
						JOINT LeftForeArm
						{
							OFFSET 0.259612 -0.012772 -0.027456
							CHANNELS 3 Zrotation Yrotation Xrotation
							JOINT LeftHand
							{
								OFFSET 0.249234 0.008986 -0.001171
								CHANNELS 3 Zrotation Yrotation Xrotation
								End Site
								{
									OFFSET 0.000000 0.000000 0.000000
								}
							}
						}
					}
				}
				JOINT RightShoulder
				{
					OFFSET -0.081759 0.118833 -0.038615
					CHANNELS 3 Zrotation Yrotation Xrotation
					JOINT RightArm
					{
						OFFSET -0.096012 0.032551 -0.009143
						CHANNELS 3 Zrotation Yrotation Xrotation
						JOINT RightForeArm
						{
							OFFSET -0.253742 -0.013329 -0.021401
							CHANNELS 3 Zrotation Yrotation Xrotation
							JOINT RightHand
							{
								OFFSET -0.255298 0.007772 -0.005559
								CHANNELS 3 Zrotation Yrotation Xrotation
								End Site
								{
									OFFSET 0.000000 0.000000 0.000000
								}
							}
						}
					}
				}
			}
		}
	}
}
MOTION
Frames: 8
Frame Time: 0.050000
-0.025358 0.939495 0.753201 -2.705116 -18.072709 -4.661540 -3.155445 -0.289930 -1.785539 -0.033792 -0.031100 2.187278 6.263975 13.272792 7.322427 0.000000 0.000000 0.000000 -0.942009 -0.090466 2.097255 4.416903 4.108827 48.666023 2.100085 -5.649013 18.974760 0.000000 0.000000 0.000000 4.396754 0.619389 -5.912585 -2.363815 0.811390 -7.206333 2.006198 9.002329 15.668928 5.925896 -3.362045 -12.264978 0.000000 0.000000 0.000000 19.762651 -24.189565 4.724383 0.886556 -48.244017 -3.036452 110.057211 -20.920688 -26.047812 0.000000 0.000000 0.000000 -21.432109 15.071478 3.623450 10.457773 38.622555 0.023121 -109.110930 17.967899 -21.815795 0.000000 0.000000 0.000000 
-0.024193 0.940234 0.777103 -3.150207 -16.876657 -4.468068 -3.776396 -0.131145 -0.448570 0.619468 -0.135354 1.904684 6.373933 13.638387 5.964719 0.000000 0.000000 0.000000 -1.172992 0.371684 -3.835179 7.059805 3.342143 55.508738 -0.394558 -9.496466 19.891210 0.000000 0.000000 0.000000 4.484714 0.612382 -5.870383 -2.633356 0.966116 -6.664997 1.790494 7.377383 15.504861 5.923798 -3.490315 -11.957822 0.000000 0.000000 0.000000 19.556090 -24.395680 4.707214 1.644725 -48.915388 -3.199404 108.565855 -20.246844 -24.154833 0.000000 0.000000 0.000000 -21.766703 15.098196 3.751035 10.378068 38.363975 -0.113483 -107.462011 16.263861 -19.561816 0.000000 0.000000 0.000000 
-0.023520 0.942558 0.799658 -3.521045 -16.269726 -4.549227 -3.745119 0.139460 1.526310 0.893326 -0.165316 1.380364 6.394088 13.758795 5.826680 0.000000 0.000000 0.000000 -0.817670 0.730819 -7.529539 7.531198 3.075905 57.184221 -2.618199 -12.357878 17.725904 0.000000 0.000000 0.000000 4.402795 0.556905 -5.410937 -2.307575 0.834346 -6.947641 1.276000 6.667277 15.983725 5.799048 -3.369401 -12.661414 0.000000 0.000000 0.000000 18.862203 -24.992163 4.878309 2.452136 -48.514451 -3.421971 108.321297 -19.868066 -23.512715 0.000000 0.000000 0.000000 -21.522915 15.336552 3.815894 11.255584 39.419197 0.074927 -106.574977 16.618308 -19.828809 0.000000 0.000000 0.000000 
-0.023008 0.944762 0.821096 -3.756139 -15.609154 -5.056419 -4.110954 0.429732 3.537854 1.411808 -0.242370 1.339105 6.203219 13.495978 4.822888 0.000000 0.000000 0.000000 0.198893 1.100452 -10.388453 6.329883 3.441923 55.795934 -3.396120 -13.257788 15.905604 0.000000 0.000000 0.000000 4.892174 0.553893 -5.022099 -2.832649 1.077922 -6.600874 1.010365 5.781167 16.531134 6.010047 -3.650043 -12.166459 0.000000 0.000000 0.000000 17.999339 -25.058278 4.977271 4.021531 -49.224780 -3.993445 107.451653 -18.736504 -21.658980 0.000000 0.000000 0.000000 -20.709190 15.636164 3.946884 11.445150 39.711637 0.053308 -107.054314 15.764797 -19.165409 0.000000 0.000000 0.000000 
-0.022786 0.946081 0.841589 -4.108122 -14.197447 -5.174128 -4.218977 0.767214 5.748657 1.862645 -0.266494 0.347978 5.467862 12.104678 3.770631 0.000000 0.000000 0.000000 0.694676 1.500808 -13.215288 5.440901 3.187294 53.263336 -3.917080 -13.494935 12.949044 0.000000 0.000000 0.000000 5.122089 0.546506 -4.856393 -2.538906 0.989543 -6.350555 0.292652 5.271220 16.779592 6.046157 -3.564931 -12.807502 0.000000 0.000000 0.000000 18.314370 -25.252519 4.975528 5.383552 -49.410407 -4.586923 107.155540 -17.165692 -19.899968 0.000000 0.000000 0.000000 -19.573032 15.452437 3.915089 12.416157 39.858385 0.371584 -109.493575 16.161694 -20.146528 0.000000 0.000000 0.000000 
-0.022912 0.946711 0.861151 -4.451870 -13.128519 -5.482437 -4.114415 1.052362 7.652070 1.820488 -0.243664 0.012907 4.895277 10.948120 2.820897 0.000000 0.000000 0.000000 1.587559 1.898369 -15.420727 3.305202 3.484644 48.515577 -3.475160 -12.162778 10.530748 0.000000 0.000000 0.000000 5.382519 0.492169 -4.169409 -2.352309 0.949094 -5.565243 -0.217518 4.540729 16.290945 5.748511 -3.333683 -12.943282 0.000000 0.000000 0.000000 17.225834 -25.181169 5.195971 7.140557 -49.323768 -5.231566 107.739069 -16.731934 -19.721608 0.000000 0.000000 0.000000 -19.203420 15.561429 3.963323 12.821967 39.889683 0.506497 -111.247263 14.860228 -18.936573 0.000000 0.000000 0.000000 
-0.023496 0.946268 0.880034 -4.620916 -11.539797 -5.473947 -4.012660 1.268953 9.156106 2.012405 -0.267663 0.096353 4.182702 9.291171 0.844543 0.000000 0.000000 0.000000 2.609971 2.402137 -17.952229 1.557572 3.261302 42.690745 -3.516755 -11.639174 8.370066 0.000000 0.000000 0.000000 5.025885 0.421111 -3.730659 -1.833267 0.760278 -5.029940 -0.760849 4.227521 15.594834 5.959311 -3.467885 -12.358898 0.000000 0.000000 0.000000 17.036953 -25.082122 5.303700 8.865312 -49.656584 -6.044792 108.402744 -16.335059 -19.855729 0.000000 0.000000 0.000000 -18.675757 15.141332 3.851033 13.252475 39.257239 0.714230 -114.141541 13.509126 -17.431369 0.000000 0.000000 0.000000 
-0.024636 0.944440 0.898930 -4.738870 -9.959508 -4.905402 -3.720655 1.442414 10.516934 2.014557 -0.227129 -0.630951 3.715478 8.150125 0.077904 0.000000 0.000000 0.000000 3.383691 2.800780 -19.873121 0.527157 2.515953 34.765238 -3.668914 -11.365011 6.454390 0.000000 0.000000 0.000000 4.858095 0.415831 -3.931224 -1.228839 0.531491 -4.018399 -1.314275 3.603466 14.456702 5.776003 -3.179437 -13.052806 0.000000 0.000000 0.000000 16.015372 -24.586812 5.494104 10.783456 -49.643478 -6.828002 109.229614 -17.637792 -22.073718 0.000000 0.000000 0.000000 -18.793718 15.139514 3.837539 12.445033 39.660913 0.616944 -115.678858 11.579798 -14.754629 0.000000 0.000000 0.000000 
